/* XPM */
static const char *backGround_366_1[] = {
"366 30 2 1",
/* colors */
":	c #B0B0B0",
"`	c #D3D3D3",
/* pixels */
":::::::::::::::::::::::::::::::`````````````````````````````:::::::::::::::::::::::::::::::``````````````````````````````:::::::::::::::::::::::::::::::``````````````````````````````:::::::::::::::::::::::::::::::```````````````````````````````::::::::::::::::::::::::::::::```````````````````````````````::::::::::::::::::::::::::::::```````````````````````````````",
":::::::::::::::::::::::::::::::`````````````````````````````:::::::::::::::::::::::::::::::``````````````````````````````:::::::::::::::::::::::::::::::``````````````````````````````:::::::::::::::::::::::::::::::```````````````````````````````::::::::::::::::::::::::::::::```````````````````````````````::::::::::::::::::::::::::::::```````````````````````````````",
":::::::::::::::::::::::::::::::`````````````````````````````:::::::::::::::::::::::::::::::``````````````````````````````:::::::::::::::::::::::::::::::``````````````````````````````:::::::::::::::::::::::::::::::```````````````````````````````::::::::::::::::::::::::::::::```````````````````````````````::::::::::::::::::::::::::::::```````````````````````````````",
":::::::::::::::::::::::::::::::`````````````````````````````:::::::::::::::::::::::::::::::``````````````````````````````:::::::::::::::::::::::::::::::``````````````````````````````:::::::::::::::::::::::::::::::```````````````````````````````::::::::::::::::::::::::::::::```````````````````````````````::::::::::::::::::::::::::::::```````````````````````````````",
":::::::::::::::::::::::::::::::`````````````````````````````:::::::::::::::::::::::::::::::``````````````````````````````:::::::::::::::::::::::::::::::``````````````````````````````:::::::::::::::::::::::::::::::```````````````````````````````::::::::::::::::::::::::::::::```````````````````````````````::::::::::::::::::::::::::::::```````````````````````````````",
":::::::::::::::::::::::::::::::`````````````````````````````:::::::::::::::::::::::::::::::``````````````````````````````:::::::::::::::::::::::::::::::``````````````````````````````:::::::::::::::::::::::::::::::```````````````````````````````::::::::::::::::::::::::::::::```````````````````````````````::::::::::::::::::::::::::::::```````````````````````````````",
":::::::::::::::::::::::::::::::`````````````````````````````:::::::::::::::::::::::::::::::``````````````````````````````:::::::::::::::::::::::::::::::``````````````````````````````:::::::::::::::::::::::::::::::```````````````````````````````::::::::::::::::::::::::::::::```````````````````````````````::::::::::::::::::::::::::::::```````````````````````````````",
":::::::::::::::::::::::::::::::`````````````````````````````:::::::::::::::::::::::::::::::``````````````````````````````:::::::::::::::::::::::::::::::``````````````````````````````:::::::::::::::::::::::::::::::```````````````````````````````::::::::::::::::::::::::::::::```````````````````````````````::::::::::::::::::::::::::::::```````````````````````````````",
":::::::::::::::::::::::::::::::`````````````````````````````:::::::::::::::::::::::::::::::``````````````````````````````:::::::::::::::::::::::::::::::``````````````````````````````:::::::::::::::::::::::::::::::```````````````````````````````::::::::::::::::::::::::::::::```````````````````````````````::::::::::::::::::::::::::::::```````````````````````````````",
":::::::::::::::::::::::::::::::`````````````````````````````:::::::::::::::::::::::::::::::``````````````````````````````:::::::::::::::::::::::::::::::``````````````````````````````:::::::::::::::::::::::::::::::```````````````````````````````::::::::::::::::::::::::::::::```````````````````````````````::::::::::::::::::::::::::::::```````````````````````````````",
":::::::::::::::::::::::::::::::`````````````````````````````:::::::::::::::::::::::::::::::``````````````````````````````:::::::::::::::::::::::::::::::``````````````````````````````:::::::::::::::::::::::::::::::```````````````````````````````::::::::::::::::::::::::::::::```````````````````````````````::::::::::::::::::::::::::::::```````````````````````````````",
":::::::::::::::::::::::::::::::`````````````````````````````:::::::::::::::::::::::::::::::``````````````````````````````:::::::::::::::::::::::::::::::``````````````````````````````:::::::::::::::::::::::::::::::```````````````````````````````::::::::::::::::::::::::::::::```````````````````````````````::::::::::::::::::::::::::::::```````````````````````````````",
":::::::::::::::::::::::::::::::`````````````````````````````:::::::::::::::::::::::::::::::``````````````````````````````:::::::::::::::::::::::::::::::``````````````````````````````:::::::::::::::::::::::::::::::```````````````````````````````::::::::::::::::::::::::::::::```````````````````````````````::::::::::::::::::::::::::::::```````````````````````````````",
":::::::::::::::::::::::::::::::`````````````````````````````:::::::::::::::::::::::::::::::``````````````````````````````:::::::::::::::::::::::::::::::``````````````````````````````:::::::::::::::::::::::::::::::```````````````````````````````::::::::::::::::::::::::::::::```````````````````````````````::::::::::::::::::::::::::::::```````````````````````````````",
":::::::::::::::::::::::::::::::`````````````````````````````:::::::::::::::::::::::::::::::``````````````````````````````:::::::::::::::::::::::::::::::``````````````````````````````:::::::::::::::::::::::::::::::```````````````````````````````::::::::::::::::::::::::::::::```````````````````````````````::::::::::::::::::::::::::::::```````````````````````````````",
":::::::::::::::::::::::::::::::`````````````````````````````:::::::::::::::::::::::::::::::``````````````````````````````:::::::::::::::::::::::::::::::``````````````````````````````:::::::::::::::::::::::::::::::```````````````````````````````::::::::::::::::::::::::::::::```````````````````````````````::::::::::::::::::::::::::::::```````````````````````````````",
":::::::::::::::::::::::::::::::`````````````````````````````:::::::::::::::::::::::::::::::``````````````````````````````:::::::::::::::::::::::::::::::``````````````````````````````:::::::::::::::::::::::::::::::```````````````````````````````::::::::::::::::::::::::::::::```````````````````````````````::::::::::::::::::::::::::::::```````````````````````````````",
":::::::::::::::::::::::::::::::`````````````````````````````:::::::::::::::::::::::::::::::``````````````````````````````:::::::::::::::::::::::::::::::``````````````````````````````:::::::::::::::::::::::::::::::```````````````````````````````::::::::::::::::::::::::::::::```````````````````````````````::::::::::::::::::::::::::::::```````````````````````````````",
":::::::::::::::::::::::::::::::`````````````````````````````:::::::::::::::::::::::::::::::``````````````````````````````:::::::::::::::::::::::::::::::``````````````````````````````:::::::::::::::::::::::::::::::```````````````````````````````::::::::::::::::::::::::::::::```````````````````````````````::::::::::::::::::::::::::::::```````````````````````````````",
":::::::::::::::::::::::::::::::`````````````````````````````:::::::::::::::::::::::::::::::``````````````````````````````:::::::::::::::::::::::::::::::``````````````````````````````:::::::::::::::::::::::::::::::```````````````````````````````::::::::::::::::::::::::::::::```````````````````````````````::::::::::::::::::::::::::::::```````````````````````````````",
":::::::::::::::::::::::::::::::`````````````````````````````:::::::::::::::::::::::::::::::``````````````````````````````:::::::::::::::::::::::::::::::``````````````````````````````:::::::::::::::::::::::::::::::```````````````````````````````::::::::::::::::::::::::::::::```````````````````````````````::::::::::::::::::::::::::::::```````````````````````````````",
":::::::::::::::::::::::::::::::`````````````````````````````:::::::::::::::::::::::::::::::``````````````````````````````:::::::::::::::::::::::::::::::``````````````````````````````:::::::::::::::::::::::::::::::```````````````````````````````::::::::::::::::::::::::::::::```````````````````````````````::::::::::::::::::::::::::::::```````````````````````````````",
":::::::::::::::::::::::::::::::`````````````````````````````:::::::::::::::::::::::::::::::``````````````````````````````:::::::::::::::::::::::::::::::``````````````````````````````:::::::::::::::::::::::::::::::```````````````````````````````::::::::::::::::::::::::::::::```````````````````````````````::::::::::::::::::::::::::::::```````````````````````````````",
":::::::::::::::::::::::::::::::`````````````````````````````:::::::::::::::::::::::::::::::``````````````````````````````:::::::::::::::::::::::::::::::``````````````````````````````:::::::::::::::::::::::::::::::```````````````````````````````::::::::::::::::::::::::::::::```````````````````````````````::::::::::::::::::::::::::::::```````````````````````````````",
":::::::::::::::::::::::::::::::`````````````````````````````:::::::::::::::::::::::::::::::``````````````````````````````:::::::::::::::::::::::::::::::``````````````````````````````:::::::::::::::::::::::::::::::```````````````````````````````::::::::::::::::::::::::::::::```````````````````````````````::::::::::::::::::::::::::::::```````````````````````````````",
":::::::::::::::::::::::::::::::`````````````````````````````:::::::::::::::::::::::::::::::``````````````````````````````:::::::::::::::::::::::::::::::``````````````````````````````:::::::::::::::::::::::::::::::```````````````````````````````::::::::::::::::::::::::::::::```````````````````````````````::::::::::::::::::::::::::::::```````````````````````````````",
":::::::::::::::::::::::::::::::`````````````````````````````:::::::::::::::::::::::::::::::``````````````````````````````:::::::::::::::::::::::::::::::``````````````````````````````:::::::::::::::::::::::::::::::```````````````````````````````::::::::::::::::::::::::::::::```````````````````````````````::::::::::::::::::::::::::::::```````````````````````````````",
":::::::::::::::::::::::::::::::`````````````````````````````:::::::::::::::::::::::::::::::``````````````````````````````:::::::::::::::::::::::::::::::``````````````````````````````:::::::::::::::::::::::::::::::```````````````````````````````::::::::::::::::::::::::::::::```````````````````````````````::::::::::::::::::::::::::::::```````````````````````````````",
":::::::::::::::::::::::::::::::`````````````````````````````:::::::::::::::::::::::::::::::``````````````````````````````:::::::::::::::::::::::::::::::``````````````````````````````:::::::::::::::::::::::::::::::```````````````````````````````::::::::::::::::::::::::::::::```````````````````````````````::::::::::::::::::::::::::::::```````````````````````````````",
":::::::::::::::::::::::::::::::`````````````````````````````:::::::::::::::::::::::::::::::``````````````````````````````:::::::::::::::::::::::::::::::``````````````````````````````:::::::::::::::::::::::::::::::```````````````````````````````::::::::::::::::::::::::::::::```````````````````````````````::::::::::::::::::::::::::::::```````````````````````````````"};
